<?xml version="1.0" encoding="UTF-8"?>
<svg id="a" data-name="Layer 1" xmlns="http://www.w3.org/2000/svg" width="1071.2" height="639.2" viewBox="0 0 1071.2 639.2">
  <g id="b" data-name="04">
    <rect x="-.002" y="-.001" width="1070.825" height="639.151" fill="#363636"/>
    <g>
      <g>
        <path d="m546.767,482.045l18.191-139.264h36.209l18.192,139.264h-23.066l-3.133-31.857h-20.194l-3.133,31.857h-23.066Zm28.201-51.701h16.19l-3.134-30.813-2.524-36.905h-4.874l-2.525,36.905-3.133,30.813Z" fill="#fff"/>
        <path d="m631.021,482.045v-87.388h-10.793v-17.059h10.793v-8.094c0-10.154,2.624-17.451,7.877-21.891,5.251-4.439,13.33-6.658,24.241-6.658,1.914,0,3.929.13,6.049.391,2.117.261,4.135.566,6.049.914v16.364c-1.914-.057-3.888-.087-5.919-.087h-6.093c-3.191,0-5.613.755-7.268,2.263-1.653,1.51-2.452,3.83-2.393,6.964v9.835h17.756v17.059h-17.756v87.388h-22.544Z" fill="#fff"/>
        <path d="m681.328,482.045v-104.448h22.456v12.273h4.004c.637-4.817,2.161-8.153,4.569-10.01,2.407-1.856,5.527-2.785,9.357-2.785,1.334,0,2.655.042,3.96.13,1.306.087,2.306.16,3.003.217v17.234h-6.702c-6.266,0-10.692.987-13.273,2.96-2.583,1.974-4.222,4.759-4.918,8.355v76.073h-22.456Z" fill="#fff"/>
        <path d="m737.12,360.973v-18.192h24.11v18.192h-24.11Zm.87,121.072v-104.448h22.456v104.448h-22.456Z" fill="#fff"/>
        <path d="m815.366,416.591c.058-1.219.101-2.828.131-4.831.029-2.002.029-3.973,0-5.918-.03-1.943-.044-3.409-.044-4.396-.232-3.133-1.031-5.338-2.394-6.615-1.363-1.276-3.584-1.916-6.658-1.916-3.25,0-5.571.64-6.963,1.916-1.392,1.277-2.147,3.482-2.263,6.615-.117,4.643-.204,9.313-.261,14.014-.058,4.7-.087,9.415-.087,14.143s.029,9.415.087,14.057c.057,4.643.144,9.256.261,13.839.115,3.366.898,5.746,2.35,7.138,1.449,1.392,3.83,2.089,7.137,2.089,3.017,0,5.18-.697,6.485-2.089,1.306-1.392,2.075-3.772,2.306-7.138.057-1.623.087-3.728.087-6.31s-.058-5.44-.175-8.574h21.847c.117,1.162.203,3.034.261,5.614.058,2.583.029,4.89-.086,6.919-.465,10.098-3.091,17.38-7.877,21.847-4.788,4.47-12.404,6.702-22.849,6.702-10.851,0-18.756-2.232-23.718-6.702-4.961-4.467-7.704-11.75-8.226-21.847-.117-2.668-.204-6.223-.261-10.662-.058-4.439-.087-9.168-.087-14.187s.029-9.821.087-14.406c.057-4.582.144-8.268.261-11.054.637-10.328,3.409-17.726,8.312-22.195,4.903-4.467,12.694-6.702,23.371-6.702,10.619,0,18.336,2.177,23.153,6.529,4.816,4.352,7.427,11.49,7.833,21.411.115,2.032.144,4.382.086,7.051-.058,2.669-.144,4.556-.261,5.658h-21.847Z" fill="#fff"/>
        <path d="m870.112,483.351c-7.137,0-12.417-1.814-15.84-5.441-3.425-3.626-5.483-9.704-6.18-18.234-.058-1.219-.087-2.582-.087-4.091s.029-2.814.087-3.917c.348-4.582,1.349-8.544,3.003-11.881,1.653-3.336,4.221-6.266,7.702-8.791,3.482-2.524,8.124-4.975,13.926-7.354,2.96-1.219,5.875-2.292,8.748-3.221,2.872-.927,5.817-1.798,8.835-2.611v-15.581c0-3.075-.609-5.396-1.828-6.963s-3.568-2.35-7.049-2.35c-2.96,0-5.063.64-6.311,1.916-1.248,1.277-1.958,3.482-2.132,6.615-.06.987-.102,2.452-.131,4.396-.03,1.945-.03,3.916,0,5.918.029,2.003.072,3.613.131,4.831h-21.847c-.06-1.045-.118-2.901-.175-5.571-.058-2.668-.058-5.049,0-7.138.29-6.498,1.449-11.807,3.482-15.928,2.031-4.119,5.251-7.137,9.662-9.052,4.409-1.914,10.386-2.872,17.93-2.872,7.835,0,13.97,1.074,18.409,3.221,4.439,2.147,7.572,5.527,9.401,10.14s2.741,10.634,2.741,18.061l-.086,74.593h-22.456v-10.793h-2.96c-1.857,4.121-4.034,7.167-6.529,9.14-2.495,1.971-5.976,2.96-10.445,2.96Zm9.227-16.19c2.436,0,4.569-.696,6.397-2.089,1.827-1.392,3.292-3.248,4.396-5.571v-26.807c-2.032.522-4.047,1.161-6.05,1.914-2.002.755-3.903,1.626-5.701,2.611-3.076,1.626-5.165,3.671-6.268,6.136-1.102,2.467-1.741,5.237-1.914,8.312-.058,1.104-.087,2.163-.087,3.177s.029,2.045.087,3.091c.29,2.96,1.219,5.237,2.786,6.832,1.566,1.598,3.684,2.394,6.354,2.394Z" fill="#fff"/>
      </g>
      <g>
        <path d="m584.02,298.115c-11.78,0-20.223-2.465-25.329-7.398-5.107-4.932-7.746-13.085-7.921-24.458-.174-18.105-.261-36.31-.261-54.618s.087-36.454.261-54.443h22.456c-.174,12.012-.276,24.445-.305,37.297-.029,12.853-.015,25.692.044,38.516.057,12.825.144,25.272.261,37.34,0,3.018.927,5.324,2.786,6.919,1.856,1.596,4.525,2.394,8.007,2.394,3.539,0,6.193-.798,7.965-2.394,1.769-1.595,2.655-3.901,2.655-6.919.115-12.069.217-24.515.305-37.34.086-12.824.115-25.662.086-38.516-.029-12.852-.16-25.285-.391-37.297h22.455c.29,17.989.436,36.138.436,54.443s-.146,36.514-.436,54.618c-.117,11.373-2.713,19.526-7.79,24.458-5.078,4.932-13.506,7.398-25.285,7.398Z" fill="#fff"/>
        <path d="m621.533,333.193c-1.916,0-3.947-.117-6.094-.348-2.145-.233-4.177-.522-6.093-.87v-16.712c1.51.058,3.482.144,5.919.262,2.438.115,4.498.174,6.18.174,3.133,0,5.54-.783,7.224-2.35,1.682-1.567,2.524-3.888,2.524-6.963v-114.37h22.456v112.629c0,10.153-2.626,17.451-7.877,21.891-5.251,4.438-13.331,6.658-24.24,6.658Zm8.877-157.803v-18.192h24.11v18.192h-24.11Z" fill="#fff"/>
        <path d="m700.128,298.029c-10.91,0-18.844-2.22-23.805-6.66-4.961-4.438-7.704-11.706-8.226-21.803-.117-2.668-.204-6.223-.261-10.662-.058-4.439-.087-9.168-.087-14.187s.029-9.821.087-14.406c.057-4.582.144-8.268.261-11.054.637-10.328,3.409-17.712,8.312-22.152,4.903-4.438,12.694-6.658,23.371-6.658,10.561,0,18.249,2.162,23.066,6.485,4.816,4.323,7.456,11.446,7.921,21.367.057,1.452.101,3.817.13,7.094.029,3.279.029,6.95,0,11.01-.029,4.063-.13,7.979-.305,11.751h-40.386c0,3.947.044,7.921.131,11.924.086,4.004.159,7.95.217,11.837.115,3.366.898,5.746,2.35,7.138,1.449,1.392,3.83,2.089,7.137,2.089,3.017,0,5.18-.697,6.485-2.089,1.306-1.392,2.045-3.772,2.219-7.138.117-1.623.175-3.712.175-6.266s-.058-5.425-.175-8.618h21.847c.117,1.104.203,2.96.261,5.571s.029,4.934-.086,6.963c-.465,10.098-3.062,17.365-7.79,21.803-4.731,4.439-12.347,6.66-22.849,6.66Zm-9.923-65.629h18.714c.057-2.495.072-4.887.044-7.18-.03-2.292-.074-4.266-.131-5.919-.058-1.653-.087-2.799-.087-3.438-.174-3.017-.943-5.193-2.306-6.529-1.363-1.334-3.584-2.002-6.658-2.002-3.25,0-5.571.668-6.963,2.002-1.392,1.335-2.147,3.512-2.263,6.529-.058,2.785-.117,5.556-.175,8.312-.058,2.757-.117,5.499-.174,8.226Z" fill="#fff"/>
        <path d="m744.082,296.462v-104.448h22.456v10.793h4.09c2.206-3.945,4.598-7.007,7.182-9.183,2.581-2.175,6.397-3.264,11.445-3.264,6.847,0,12.127,2.105,15.842,6.311,3.713,4.208,5.599,11.214,5.658,21.02v78.771h-22.544v-80.774c0-3.017-.697-5.236-2.089-6.658-1.392-1.42-3.511-2.132-6.354-2.132-2.496,0-5.049.739-7.66,2.219s-4.469,3.496-5.569,6.049v81.296h-22.456Z" fill="#fff"/>
        <path d="m821.46,296.462v-14.362l33.945-73.461h-33.25v-16.539l57.186-.086v14.709l-34.468,73.114h34.032v16.625h-57.445Z" fill="#fff"/>
        <path d="m889.525,175.39v-18.192h24.11v18.192h-24.11Zm.87,121.072v-104.448h22.456v104.448h-22.456Z" fill="#fff"/>
      </g>
    </g>
    <g>
      <path d="m402.832,482.053h-175.949c-10.818,0-19.587-9.135-19.587-20.403v-145.026h39.174v124.623h136.774v-124.623h39.174v145.026c0,11.269-8.769,20.403-19.587,20.403Z" fill="#c4c3c3"/>
      <path d="m445.192,341.94l-130.233-135.66-130.233,135.66-27.7-28.855,144.084-150.087c7.649-7.968,20.051-7.967,27.7,0l144.084,150.086-27.701,28.855Z" fill="#c4c3c3"/>
    </g>
  </g>
</svg>